<?xml version="1.0" encoding="UTF-8"?>
<!DOCTYPE svg PUBLIC "-//W3C//DTD SVG 1.1//EN" "http://www.w3.org/Graphics/SVG/1.1/DTD/svg11.dtd">
<!-- Creator: CorelDRAW -->
<svg xmlns="http://www.w3.org/2000/svg" xml:space="preserve" width="280mm" height="55mm" style="shape-rendering:geometricPrecision; text-rendering:geometricPrecision; image-rendering:optimizeQuality; fill-rule:evenodd; clip-rule:evenodd"
viewBox="0 0 280 55"
 xmlns:xlink="http://www.w3.org/1999/xlink">
 <defs>
  <style type="text/css">
   <![CDATA[
    .str0 {stroke:#1F1A17;stroke-width:0.0762}
    .str1 {stroke:#DD137B;stroke-width:0.5}
    .str2 {stroke:#DD137B;stroke-width:1.4}
    .fil1 {fill:none}
    .fil0 {fill:#DD137B;fill-rule:nonzero}
   ]]>
  </style>
 </defs>
 <g id="Layer_x0020_1">
  <metadata id="CorelCorpID_0Corel-Layer"/>
  <g id="_125931336">
   <g>
    <path id="_238319496" class="fil0" d="M78.2361 21.5447c-0.2095,-0.3445 -0.5904,-0.7259 -1.1428,-1.1441 -0.5523,-0.4182 -1.176,-0.8733 -1.8712,-1.3654 -0.6951,-0.4921 -1.4188,-1.0272 -2.1711,-1.6054 -0.7523,-0.5781 -1.4427,-1.2055 -2.0712,-1.882 -0.6286,-0.6767 -1.1427,-1.3963 -1.5427,-2.1589 -0.4,-0.7627 -0.5999,-1.5869 -0.5999,-2.4726 0,-1.2302 0.1713,-2.3127 0.5142,-3.2476 0.3428,-0.935 0.8285,-1.7222 1.457,-2.3619 0.6285,-0.6397 1.3855,-1.1256 2.2711,-1.4577 0.8856,-0.3322 1.8713,-0.4982 2.9569,-0.4982 0.6665,0 1.376,0.1291 2.1283,0.3875 0.7523,0.2583 1.457,0.6089 2.1141,1.0517 0.657,0.4429 1.2236,0.9596 1.6997,1.55 0.4761,0.5905 0.7714,1.2179 0.8857,1.8822 0.0761,0.4428 0.0761,0.8426 0,1.1993 -0.0762,0.3568 -0.2,0.6582 -0.3715,0.9042 -0.1714,0.246 -0.3808,0.4305 -0.6285,0.5535 -0.2476,0.1231 -0.5142,0.1845 -0.7999,0.1845 -0.476,0 -0.9427,-0.1783 -1.3998,-0.5351 -0.4571,-0.3567 -0.8094,-0.9164 -1.057,-1.6791 -0.1333,-0.4428 -0.3238,-0.8426 -0.5714,-1.1993 -0.2476,-0.3568 -0.5237,-0.6582 -0.8285,-0.9042 -0.3046,-0.246 -0.6332,-0.4244 -0.9856,-0.5352 -0.3523,-0.1106 -0.6999,-0.1291 -1.0427,-0.0553 -0.3428,0.0738 -0.6523,0.2214 -0.9284,0.4429 -0.2762,0.2214 -0.5,0.4798 -0.6714,0.775 -0.1715,0.2952 -0.2714,0.6089 -0.3,0.941 -0.0285,0.3321 0.0429,0.6335 0.2143,0.9041 0.2857,0.4429 0.7237,0.8919 1.3141,1.3471 0.5904,0.4551 1.2427,0.9348 1.9569,1.4392 0.7142,0.5044 1.4427,1.0456 2.1855,1.6238 0.7428,0.5782 1.4237,1.1994 2.0427,1.8637 0.6189,0.6642 1.1236,1.3777 1.514,2.1404 0.3904,0.7627 0.5857,1.5992 0.5857,2.5095 0,2.4848 -0.6285,4.3178 -1.8855,5.4987 -1.257,1.1809 -2.9806,1.7714 -5.1708,1.7714 -1.0666,0 -2.0332,-0.1599 -2.8998,-0.4797 -0.8665,-0.3199 -1.614,-0.7197 -2.2425,-1.1994 -0.6285,-0.4798 -1.1284,-0.9842 -1.4999,-1.5131 -0.3713,-0.529 -0.5951,-1.0026 -0.6713,-1.4208 -0.0952,-0.5659 -0.1,-1.0702 -0.0143,-1.513 0.0858,-0.4429 0.2238,-0.8181 0.4143,-1.1257 0.1904,-0.3075 0.4237,-0.5473 0.6998,-0.7196 0.2762,-0.1722 0.5666,-0.2583 0.8714,-0.2583 0.438,0 0.8618,0.203 1.2713,0.6089 0.4094,0.4059 0.6998,1.0518 0.8713,1.9375 0.1905,1.0087 0.6094,1.7837 1.257,2.3249 0.6475,0.5413 1.3618,0.7504 2.1426,0.6274 0.3619,-0.0492 0.7094,-0.1783 1.0428,-0.3874 0.3332,-0.2092 0.6047,-0.4614 0.8141,-0.7566 0.2096,-0.2953 0.3381,-0.6151 0.3857,-0.9595 0.0476,-0.3445 -0.0333,-0.6889 -0.2428,-1.0333zm12.4843 -4.0595c0,0.6643 0.0475,1.3531 0.1428,2.0666 0.0952,0.7135 0.2667,1.3532 0.5142,1.9191 0.2476,0.5658 0.5761,1.0333 0.9857,1.4023 0.4094,0.369 0.9284,0.5535 1.5569,0.5535 0.7808,0 1.3856,-0.1845 1.814,-0.5535 0.4287,-0.369 0.7428,-0.8488 0.9428,-1.4393 0.2001,-0.5904 0.3238,-1.2485 0.3714,-1.9743 0.0476,-0.7258 0.0714,-1.4578 0.0714,-2.1958l0 -9.3737c0,-0.4182 -0.0667,-0.7319 -0.2,-0.941 -0.1333,-0.2092 -0.2856,-0.3937 -0.457,-0.5536 -0.1715,-0.1599 -0.3238,-0.3199 -0.4571,-0.4798 -0.1333,-0.1599 -0.2,-0.3874 -0.2,-0.6827 0,-0.5659 0.0477,-0.941 0.1429,-1.1256 0.0951,-0.1845 0.4094,-0.2768 0.9427,-0.2768l3.5139 0c0.2666,0 0.4761,0.0185 0.6285,0.0554 0.1524,0.0369 0.2619,0.1107 0.3285,0.2214 0.0667,0.1107 0.1048,0.2522 0.1143,0.4244 0.0095,0.1722 0.0143,0.406 0.0143,0.7012 0,0.2953 -0.0667,0.5228 -0.2,0.6827 -0.1333,0.1599 -0.2809,0.3199 -0.4428,0.4798 -0.1618,0.1599 -0.3095,0.3444 -0.4428,0.5536 -0.1333,0.2091 -0.2,0.5228 -0.2,0.941l0 10.8868c0,1.2547 -0.1476,2.4233 -0.4428,3.5058 -0.2952,1.0826 -0.7237,2.0114 -1.2855,2.7863 -0.562,0.775 -1.2523,1.3839 -2.0712,1.8268 -0.819,0.4429 -1.7428,0.6643 -2.7712,0.6643 -2.7426,0 -4.7994,-0.7996 -6.1707,-2.3988 -1.3712,-1.5992 -2.0569,-3.7274 -2.0569,-6.3844l0 -10.8868c0,-0.4182 -0.0666,-0.7319 -0.2,-0.941 -0.1333,-0.2092 -0.2857,-0.3937 -0.4571,-0.5536 -0.1714,-0.1599 -0.3238,-0.3199 -0.4571,-0.4798 -0.1333,-0.1599 -0.2,-0.3874 -0.2,-0.6827 0,-0.5659 0.0477,-0.941 0.1429,-1.1256 0.0952,-0.1845 0.4095,-0.2768 0.9428,-0.2768l5.7421 0c0.2667,0 0.4762,0.0185 0.6285,0.0554 0.1524,0.0369 0.2619,0.1107 0.3286,0.2214 0.0666,0.1107 0.1047,0.2522 0.1142,0.4244 0.0096,0.1722 0.0143,0.406 0.0143,0.7012 0,0.2953 -0.0666,0.5228 -0.1999,0.6827 -0.1334,0.1599 -0.2809,0.3199 -0.4429,0.4798 -0.1619,0.1599 -0.3094,0.3444 -0.4428,0.5536 -0.1333,0.2091 -0.1999,0.5228 -0.1999,0.941l0 9.5951zm12.2272 8.0082c0,-0.2952 0.0666,-0.5228 0.1999,-0.6827 0.1334,-0.1599 0.2809,-0.3199 0.4428,-0.4798 0.162,-0.1599 0.3095,-0.3505 0.4429,-0.572 0.1333,-0.2214 0.1999,-0.5289 0.1999,-0.9226l0 -14.5403c0,-0.4182 -0.0666,-0.7318 -0.1999,-0.941 -0.1334,-0.2091 -0.2809,-0.3875 -0.4429,-0.5351 -0.1619,-0.1476 -0.3094,-0.3076 -0.4428,-0.4798 -0.1333,-0.1722 -0.1999,-0.4059 -0.1999,-0.7012 0,-0.246 0.0047,-0.4797 0.0143,-0.7011 0.0095,-0.2215 0.0476,-0.4122 0.1142,-0.5721 0.0667,-0.1598 0.1905,-0.289 0.3713,-0.3874 0.181,-0.0985 0.4429,-0.1477 0.7857,-0.1477l4.2852 0c0.4,0 0.7142,0 0.9428,0 0.2285,0 0.4094,0.0431 0.5428,0.1292 0.1334,0.0861 0.2428,0.2399 0.3285,0.4613 0.0857,0.2215 0.1953,0.5659 0.3286,1.0333l3.0567 11.2927c0.0953,0.369 0.2287,0.5536 0.4,0.5536 0.1714,0 0.3143,-0.2215 0.4285,-0.6643l2.7425 -11.4772c0.0763,-0.3444 0.1715,-0.6089 0.2857,-0.7935 0.1144,-0.1845 0.2381,-0.3136 0.3715,-0.3874 0.1333,-0.0738 0.2761,-0.1169 0.4285,-0.1292 0.1523,-0.0123 0.3142,-0.0185 0.4856,-0.0185l4.2853 0c0.3428,0 0.6046,0.0492 0.7855,0.1477 0.181,0.0984 0.3048,0.2276 0.3715,0.3874 0.0666,0.1599 0.1048,0.3506 0.1143,0.5721 0.0094,0.2214 0.0142,0.4551 0.0142,0.7011 0,0.2953 -0.0667,0.529 -0.2,0.7012 -0.1332,0.1722 -0.2809,0.3322 -0.4427,0.4798 -0.1619,0.1476 -0.3095,0.326 -0.4428,0.5351 -0.1334,0.2092 -0.2,0.5228 -0.2,0.941l0 14.5403c0,0.3937 0.0666,0.7012 0.2,0.9226 0.1333,0.2215 0.2809,0.4121 0.4428,0.572 0.1618,0.1599 0.3095,0.3199 0.4427,0.4798 0.1333,0.1599 0.2,0.3875 0.2,0.6827 0,0.2953 -0.0048,0.529 -0.0142,0.7012 -0.0095,0.1722 -0.0477,0.3137 -0.1143,0.4244 -0.0667,0.1107 -0.1762,0.1845 -0.3285,0.2214 -0.1524,0.0369 -0.3619,0.0554 -0.6285,0.0554l-5.3423 0c-0.5333,0 -0.8476,-0.0923 -0.9428,-0.2768 -0.0952,-0.1845 -0.1428,-0.5597 -0.1428,-1.1256 0,-0.2952 0.0667,-0.5228 0.2,-0.6827 0.1333,-0.1599 0.2856,-0.3199 0.457,-0.4798 0.1715,-0.1599 0.3238,-0.3505 0.4571,-0.572 0.1333,-0.2214 0.2,-0.5289 0.2,-0.9226l0 -7.6022c0,-0.2215 -0.0238,-0.4183 -0.0713,-0.5906 -0.0477,-0.1722 -0.1192,-0.2583 -0.2143,-0.2583 -0.1524,0 -0.2953,0.283 -0.4286,0.8489l-2.514 10.37c-0.0761,0.3199 -0.2238,0.6213 -0.4428,0.9042 -0.219,0.2829 -0.5475,0.4244 -0.9856,0.4244l-0.9427 0c-0.5524,0 -0.9428,-0.1722 -1.1714,-0.5167 -0.2285,-0.3445 -0.3904,-0.6766 -0.4856,-0.9964l-2.8283 -10.1855c-0.1523,-0.5659 -0.3046,-0.8489 -0.4571,-0.8489 -0.0761,0 -0.138,0.0861 -0.1856,0.2583 -0.0476,0.1723 -0.0715,0.3691 -0.0715,0.5906l0 7.6022c0,0.3937 0.0667,0.7012 0.2,0.9226 0.1334,0.2215 0.2857,0.4121 0.4572,0.572 0.1713,0.1599 0.3237,0.3199 0.457,0.4798 0.1334,0.1599 0.2,0.3875 0.2,0.6827 0,0.2953 -0.0048,0.529 -0.0143,0.7012 -0.0095,0.1722 -0.0477,0.3137 -0.1143,0.4244 -0.0667,0.1107 -0.1762,0.1845 -0.3285,0.2214 -0.1524,0.0369 -0.3618,0.0554 -0.6286,0.0554l-3.628 0c-0.5333,0 -0.8476,-0.0923 -0.9428,-0.2768 -0.0953,-0.1845 -0.1428,-0.5597 -0.1428,-1.1256zm22.9688 0c0,-0.2952 0.0666,-0.5228 0.2,-0.6827 0.1333,-0.1599 0.2809,-0.3199 0.4428,-0.4798 0.1619,-0.1599 0.3095,-0.3505 0.4428,-0.572 0.1333,-0.2214 0.1999,-0.5289 0.1999,-0.9226l0 -14.9462c0,-0.4182 -0.0666,-0.7319 -0.1999,-0.941 -0.1333,-0.2092 -0.2857,-0.3937 -0.4571,-0.5536 -0.1714,-0.1599 -0.3238,-0.3199 -0.4571,-0.4798 -0.1334,-0.1599 -0.2,-0.3874 -0.2,-0.6827 0,-0.5659 0.0476,-0.941 0.1429,-1.1256 0.0952,-0.1845 0.4094,-0.2768 0.9427,-0.2768l8.4276 0c0.6095,0 1.2047,0.1108 1.7856,0.3322 0.5808,0.2214 1.095,0.5659 1.5426,1.0333 0.4476,0.4675 0.819,1.0579 1.1141,1.7714 0.2953,0.7135 0.4619,1.5746 0.5,2.5833 0.0571,1.3039 -0.1095,2.3434 -0.5,3.1184 -0.3904,0.775 -0.8236,1.2609 -1.2998,1.4577 -0.0571,0.0246 -0.1143,0.08 -0.1713,0.1661 -0.0572,0.0861 -0.0858,0.1783 -0.0858,0.2768 0,0.0984 0.0286,0.1845 0.0858,0.2583 0.057,0.0738 0.1618,0.123 0.3141,0.1476 0.3429,0.0493 0.7047,0.203 1.0857,0.4613 0.3808,0.2583 0.7332,0.6089 1.057,1.0518 0.3237,0.4428 0.5951,0.9779 0.8142,1.6053 0.219,0.6274 0.3285,1.3224 0.3285,2.0851 0,0.8365 -0.0999,1.6607 -0.2999,2.4726 -0.2001,0.8119 -0.5048,1.5315 -0.9143,2.1589 -0.4094,0.6274 -0.9427,1.1317 -1.5998,1.5131 -0.6571,0.3813 -1.4427,0.572 -2.3568,0.572l-9.7989 0c-0.5333,0 -0.8475,-0.0923 -0.9428,-0.2768 -0.0952,-0.1845 -0.1428,-0.5597 -0.1428,-1.1256zm6.5993 -15.6105c0,0.7135 0,1.304 0,1.7714 0,0.4675 0.038,0.8427 0.1142,1.1256 0.0762,0.2829 0.2095,0.4798 0.4,0.5905 0.1904,0.1107 0.4666,0.166 0.8285,0.166 0.1713,0 0.3808,-0.0553 0.6285,-0.166 0.2475,-0.1107 0.4809,-0.3076 0.6998,-0.5905 0.2191,-0.2829 0.4048,-0.6581 0.5571,-1.1256 0.1524,-0.4674 0.2191,-1.0579 0.2,-1.7714 -0.019,-0.7627 -0.1095,-1.3716 -0.2714,-1.8267 -0.1619,-0.4552 -0.3475,-0.8057 -0.5571,-1.0518 -0.2095,-0.246 -0.4285,-0.4059 -0.657,-0.4798 -0.2286,-0.0737 -0.4286,-0.1106 -0.5999,-0.1106 -0.3619,0 -0.6381,0.0799 -0.8285,0.2398 -0.1905,0.16 -0.3238,0.3875 -0.4,0.6828 -0.0762,0.2952 -0.1142,0.6519 -0.1142,1.0702 0,0.4182 0,0.9103 0,1.4761zm0 10.2963c0,0.8611 0.0047,1.5684 0.0142,2.122 0.0096,0.5535 0.0572,0.9964 0.1429,1.3286 0.0857,0.3321 0.2285,0.5597 0.4284,0.6827 0.2001,0.123 0.4905,0.1845 0.8714,0.1845 0.2095,0 0.4713,-0.0615 0.7856,-0.1845 0.3143,-0.123 0.619,-0.3506 0.9142,-0.6827 0.2952,-0.3322 0.5428,-0.7751 0.7428,-1.3286 0.2,-0.5536 0.2904,-1.2609 0.2714,-2.122 -0.0191,-0.8857 -0.1381,-1.6115 -0.3571,-2.1774 -0.219,-0.5658 -0.4714,-1.0148 -0.757,-1.3469 -0.2857,-0.3322 -0.5762,-0.5536 -0.8714,-0.6643 -0.2952,-0.1108 -0.5381,-0.1661 -0.7285,-0.1661 -0.3809,0.0246 -0.6713,0.0984 -0.8714,0.2214 -0.1999,0.1231 -0.3427,0.3445 -0.4284,0.6643 -0.0857,0.3198 -0.1333,0.7565 -0.1429,1.3101 -0.0095,0.5536 -0.0142,1.2732 -0.0142,2.1589zm10.9987 5.2773c0,-0.2952 0.0667,-0.5228 0.2,-0.6827 0.1333,-0.16 0.2809,-0.3199 0.4428,-0.4797 0.1619,-0.16 0.3095,-0.3506 0.4428,-0.5721 0.1333,-0.2214 0.1999,-0.5289 0.1999,-0.9226l0 -14.9093c0,-0.4182 -0.0666,-0.7319 -0.1999,-0.941 -0.1333,-0.2092 -0.2857,-0.3937 -0.4571,-0.5536 -0.1714,-0.1599 -0.3238,-0.3199 -0.4571,-0.4798 -0.1333,-0.1599 -0.2,-0.3874 -0.2,-0.6827 0,-0.5167 0.0333,-0.8796 0.1,-1.0887 0.0667,-0.2091 0.3,-0.3137 0.6999,-0.3137l10.456 0c0.5523,0 0.976,0.0308 1.2713,0.0923 0.2952,0.0615 0.5095,0.3752 0.6428,0.9411l0.8856 3.7273c0.0952,0.3444 0.0476,0.6028 -0.1428,0.775 -0.1905,0.1722 -0.4381,0.2583 -0.7428,0.2583 -0.2667,0 -0.5428,-0.0738 -0.8285,-0.2214 -0.2286,-0.123 -0.4381,-0.3383 -0.6285,-0.6458 -0.1904,-0.3076 -0.3856,-0.6212 -0.5857,-0.9411 -0.2,-0.3199 -0.4237,-0.6028 -0.6714,-0.8488 -0.2475,-0.246 -0.5522,-0.369 -0.9141,-0.369l-2.0855 0c-0.2285,0 -0.4237,0.0799 -0.5856,0.2398 -0.1619,0.1599 -0.2428,0.4614 -0.2428,0.9042l0 5.9416 1.6569 0c0.3238,0 0.5666,-0.0861 0.7285,-0.2583 0.1618,-0.1723 0.3047,-0.363 0.4285,-0.5721 0.1238,-0.2091 0.2476,-0.3998 0.3714,-0.572 0.1238,-0.1722 0.3,-0.2583 0.5285,-0.2583 0.2285,0 0.4095,0.0061 0.5428,0.0184 0.1334,0.0123 0.2428,0.0616 0.3286,0.1477 0.0857,0.0861 0.1428,0.2276 0.1713,0.4243 0.0286,0.1969 0.0429,0.4675 0.0429,0.812l0 3.6903c0,0.689 -0.0714,1.0949 -0.2142,1.2179 -0.1429,0.123 -0.4333,0.1845 -0.8714,0.1845 -0.2285,0 -0.4047,-0.0861 -0.5285,-0.2583 -0.1238,-0.1723 -0.2476,-0.369 -0.3714,-0.5905 -0.1238,-0.2214 -0.2667,-0.4182 -0.4285,-0.5905 -0.1619,-0.1722 -0.4047,-0.2583 -0.7285,-0.2583l-1.6569 0 0 6.1261c0,0.4429 0.0809,0.7442 0.2428,0.9042 0.1619,0.1599 0.3571,0.2398 0.5856,0.2398l2.9426 0c0.3619,0 0.6665,-0.123 0.9141,-0.369 0.2476,-0.246 0.4714,-0.5289 0.6714,-0.8488 0.2,-0.3198 0.3952,-0.6335 0.5856,-0.9411 0.1904,-0.3075 0.4,-0.5228 0.6286,-0.6457 0.2856,-0.1477 0.5618,-0.2215 0.8284,-0.2215 0.3047,0 0.5524,0.0861 0.7428,0.2583 0.1904,0.1723 0.238,0.4306 0.1428,0.775l-0.8856 3.7274c-0.1333,0.5658 -0.3476,0.8795 -0.6427,0.941 -0.2953,0.0615 -0.7191,0.0923 -1.2714,0.0923l-10.9987 0c-0.5333,0 -0.8475,-0.0923 -0.9427,-0.2768 -0.0953,-0.1845 -0.1429,-0.5597 -0.1429,-1.1256zm16.4839 0.0369c0,-0.2952 0.0666,-0.5228 0.1999,-0.6827 0.1334,-0.1599 0.2809,-0.3199 0.4428,-0.4798 0.162,-0.1599 0.3095,-0.3505 0.4429,-0.572 0.1333,-0.2214 0.1999,-0.5289 0.1999,-0.9226l0 -14.9462c0,-0.4182 -0.0666,-0.7319 -0.1999,-0.941 -0.1334,-0.2092 -0.2858,-0.3937 -0.4571,-0.5536 -0.1714,-0.1599 -0.3238,-0.3199 -0.4572,-0.4798 -0.1333,-0.1599 -0.1999,-0.3874 -0.1999,-0.6827 0,-0.5659 0.0476,-0.941 0.1428,-1.1256 0.0952,-0.1845 0.4095,-0.2768 0.9428,-0.2768l9.1132 0c0.6856,0 1.3475,0.1538 1.9856,0.4614 0.6379,0.3075 1.195,0.7565 1.6711,1.3469 0.4762,0.5905 0.8571,1.304 1.1428,2.1405 0.2857,0.8365 0.4285,1.7714 0.4285,2.8047 0,1.4023 -0.2,2.6571 -0.5999,3.7642 -0.4,1.1072 -0.9619,1.9313 -1.6856,2.4726 -0.1143,0.0985 -0.0999,0.326 0.0429,0.6827 0.1428,0.3568 0.281,0.6828 0.4143,0.978l1.8569 4.3547c0.1524,0.369 0.3475,0.6643 0.5856,0.8857 0.2381,0.2215 0.4619,0.4121 0.6714,0.5721 0.2094,0.1598 0.3905,0.3259 0.5428,0.4981 0.1523,0.1722 0.2285,0.406 0.2285,0.7012 0,0.2953 -0.0047,0.529 -0.0142,0.7012 -0.0096,0.1722 -0.0477,0.3137 -0.1144,0.4244 -0.0666,0.1107 -0.1761,0.1845 -0.3285,0.2214 -0.1523,0.0369 -0.3618,0.0554 -0.6284,0.0554l-3.7425 0c-0.3429,0 -0.6142,-0.0431 -0.8142,-0.1292 -0.2,-0.0861 -0.3666,-0.1907 -0.4999,-0.3137 -0.1334,-0.123 -0.2381,-0.2644 -0.3142,-0.4244 -0.0763,-0.1599 -0.143,-0.3259 -0.2001,-0.4981l-2.771 -7.3809c-0.1524,-0.3691 -0.381,-0.5536 -0.6857,-0.5536 -0.1905,0 -0.3619,0.0861 -0.5142,0.2583 -0.1524,0.1723 -0.2285,0.4306 -0.2285,0.775l0 4.244c0,0.3937 0.0761,0.7012 0.2285,0.9226 0.1523,0.2215 0.3237,0.4121 0.5142,0.572 0.1904,0.1599 0.3619,0.3137 0.5142,0.4613 0.1524,0.1476 0.2286,0.3691 0.2286,0.6643 0,0.2953 -0.0048,0.529 -0.0144,0.7012 -0.0095,0.1722 -0.0571,0.3137 -0.1428,0.4244 -0.0857,0.1107 -0.2094,0.1845 -0.3713,0.2214 -0.1619,0.0369 -0.4048,0.0554 -0.7285,0.0554l-5.7422 0c-0.5333,0 -0.8476,-0.0923 -0.9428,-0.2768 -0.0953,-0.1845 -0.1428,-0.5597 -0.1428,-1.1256zm6.5993 -14.6879c0,0.8365 0,1.5316 0,2.0851 0,0.5536 0.0237,0.9903 0.0713,1.3101 0.0476,0.3199 0.1334,0.5474 0.2572,0.6828 0.1237,0.1353 0.2999,0.2029 0.5285,0.2029 0.2665,0 0.557,-0.0676 0.8713,-0.2029 0.3142,-0.1354 0.6047,-0.3629 0.8713,-0.6828 0.2667,-0.3198 0.4857,-0.7565 0.6571,-1.3101 0.1714,-0.5535 0.2475,-1.2486 0.2285,-2.0851 -0.0191,-0.861 -0.1189,-1.5745 -0.2999,-2.1404 -0.181,-0.5659 -0.4,-1.0148 -0.6571,-1.347 -0.2571,-0.3321 -0.5333,-0.5659 -0.8285,-0.7012 -0.2952,-0.1353 -0.5762,-0.2029 -0.8427,-0.2029 -0.2286,0 -0.4048,0.0676 -0.5285,0.2029 -0.1238,0.1353 -0.2096,0.3752 -0.2572,0.7197 -0.0476,0.3444 -0.0713,0.7934 -0.0713,1.3469 0,0.5536 0,1.261 0,2.122z"/>
    <path id="_238321440" class="fil0" d="M110.484 40.5241c0,-0.359 -0.0559,-0.5919 -0.1702,-0.6987 -0.1144,-0.1067 -0.359,-0.165 -0.734,-0.1746l0 -0.6817c0.633,-0.034 1.2287,-0.0679 1.782,-0.1067 0.5532,-0.0389 1.0878,-0.0801 1.6012,-0.1287l0 6.264c0,0.359 0.0559,0.5919 0.1702,0.6986 0.1143,0.1068 0.359,0.165 0.734,0.1747l0.008 0.6817c-0.6143,0.034 -1.1782,0.068 -1.6969,0.1068 -0.5159,0.0388 -1.0055,0.08 -1.4681,0.1286l0 -1.6206c-0.415,0.541 -0.8618,0.9461 -1.3406,1.2154 -0.4762,0.2693 -0.9895,0.4052 -1.5347,0.4052 -0.774,0 -1.3299,-0.2451 -1.6704,-0.7327 -0.3404,-0.4876 -0.5106,-1.2979 -0.5106,-2.4308l0 -3.1005c0,-0.359 -0.0558,-0.5919 -0.1702,-0.6987 -0.1144,-0.1067 -0.3618,-0.165 -0.7421,-0.1746l0 -0.6817c0.6384,-0.034 1.2368,-0.0679 1.7901,-0.1067 0.5531,-0.0389 1.0851,-0.0801 1.5931,-0.1287l0 5.3178c0,0.5823 0.0638,0.9801 0.1915,1.1936 0.1278,0.2135 0.3511,0.3202 0.673,0.3202 0.4628,0 0.8271,-0.2135 1.0931,-0.6428 0.2687,-0.4294 0.4016,-1.0214 0.4016,-1.7735l0 -2.6249zm9.2986 5.0388c-0.4735,0.4051 -0.9469,0.7084 -1.423,0.9146 -0.476,0.2062 -0.9495,0.3106 -1.423,0.3106 -0.6489,0 -1.1835,-0.182 -1.6065,-0.5484 -0.4202,-0.3639 -0.6303,-0.8272 -0.6303,-1.3925 0,-0.7957 0.4042,-1.4167 1.2128,-1.8607 0.806,-0.4464 2.0427,-0.7277 3.7051,-0.8466l0 -1.0432c0,-0.6599 -0.1117,-1.1112 -0.3351,-1.3562 -0.2235,-0.245 -0.6118,-0.3663 -1.1623,-0.3663 -0.242,0 -0.4548,0.0339 -0.6384,0.1044 -0.1809,0.0679 -0.2713,0.1407 -0.2713,0.2158 0,0.0098 0.0133,0.0388 0.0452,0.0849 0.016,0.0243 0.0265,0.0413 0.0319,0.051l0.2261 0.3202c0.0453,0.0656 0.0851,0.148 0.1117,0.2451 0.0293,0.097 0.0425,0.194 0.0425,0.2935 0,0.2863 -0.1169,0.5216 -0.3484,0.7084 -0.234,0.1868 -0.5399,0.2814 -0.9122,0.2814 -0.3857,0 -0.6969,-0.0995 -0.9363,-0.2984 -0.2394,-0.1989 -0.3591,-0.4609 -0.3591,-0.7836 0,-0.541 0.3139,-0.9849 0.9442,-1.3367 0.6278,-0.3517 1.4444,-0.5265 2.4471,-0.5265 1.2155,0 2.1117,0.233 2.689,0.6963 0.5771,0.4658 0.8644,1.1912 0.8644,2.1786l0 3.6656c0,0.131 0.0266,0.2281 0.0772,0.2936 0.0531,0.063 0.1329,0.0946 0.242,0.0946 0.0744,0 0.1755,-0.0267 0.3085,-0.0777 0.133,-0.0509 0.2234,-0.0776 0.2686,-0.0776 0.0638,0 0.1197,0.0243 0.1677,0.0752 0.0505,0.0485 0.0743,0.1044 0.0743,0.1674 0,0.2087 -0.1914,0.4197 -0.577,0.638 -0.3831,0.2184 -0.7953,0.3276 -1.2316,0.3276 -0.3989,0 -0.7288,-0.0922 -0.9894,-0.2766 -0.2607,-0.1844 -0.4654,-0.4779 -0.6144,-0.8758zm-0.1649 -2.8045c-0.8272,0.1093 -1.4416,0.3057 -1.8458,0.592 -0.407,0.2887 -0.6092,0.6648 -0.6092,1.1354 0,0.3202 0.0984,0.5749 0.2952,0.7593 0.1996,0.1844 0.4709,0.2766 0.8192,0.2766 0.4682,0 0.8139,-0.1674 1.0374,-0.4998 0.2234,-0.3348 0.3351,-0.8515 0.3351,-1.5526 0,-0.0801 -0.0026,-0.1674 -0.0053,-0.2644 -0.0027,-0.0947 -0.0107,-0.2426 -0.0266,-0.4465zm5.0243 -5.4972c0,-0.3397 -0.0638,-0.5726 -0.1915,-0.6915 -0.1276,-0.1212 -0.367,-0.1867 -0.7208,-0.1964l0 -0.6599c0.5027,-0.0194 1.0347,-0.0558 1.5906,-0.114 0.5558,-0.0558 1.1623,-0.1359 1.8219,-0.2402l0 9.5026c0,0.3688 0.0585,0.6211 0.1755,0.7545 0.1171,0.131 0.3405,0.2207 0.673,0.2693l0 0.6671 -4.1812 0 0 -0.6671c0.3325,-0.0486 0.5532,-0.1359 0.665,-0.2621 0.1117,-0.1285 0.1675,-0.3832 0.1675,-0.7617l0 -7.6006z"/>
    <line id="_238319568" class="fil1 str0" x1="98.8795" y1="41.5109" x2="96.449" y2= "42.7261" />
    <path id="_238319400" class="fil0" d="M93.9864 35.6618c-0.6656,0.6725 -1.0232,1.5767 -1.0696,2.7053 -0.0494,1.1847 0.2483,2.1544 0.8931,2.9112 0.6447,0.7568 1.5203,1.1638 2.6269,1.2229 0.7754,0.0417 1.427,-0.1245 1.9519,-0.4984 0.5225,-0.374 0.7973,-0.8595 0.8221,-1.4565 0.0144,-0.3451 -0.0756,-0.6258 -0.2717,-0.842 -0.196,-0.2161 -0.4639,-0.3334 -0.8012,-0.3514 -0.2947,-0.0159 -0.5386,0.0575 -0.7324,0.2178 -0.1936,0.1602 -0.2951,0.3768 -0.3062,0.652 -0.0063,0.1447 0.0171,0.2861 0.0702,0.4222 0.0553,0.1338 0.1377,0.2621 0.2522,0.3828l0.2137 0.2312c0.0345,0.0322 0.06,0.0686 0.0784,0.1094 0.019,0.0407 0.0263,0.0808 0.0245,0.1206 -0.0042,0.1002 -0.1049,0.1929 -0.3046,0.2781 -0.1994,0.0851 -0.4286,0.1218 -0.6872,0.108 -0.5621,-0.0301 -0.9637,-0.2923 -1.2071,-0.7845 -0.2408,-0.4922 -0.3401,-1.2547 -0.2971,-2.2902 0.0446,-1.0751 0.2195,-1.8651 0.5218,-2.3654 0.2887,-0.4799 0.7072,-0.7161 1.2573,-0.7091 0.7458,-0.1096 1.9536,0.4082 2.1835,1.1592 0.0412,0.2036 0.0617,0.4432 0.0617,0.7183l0 8.8741c0,1.2387 -0.2095,2.1659 -0.6243,2.7853 -0.419,0.6194 -1.039,0.9309 -1.8685,0.9309 -0.3017,0 -0.5657,-0.06 -0.7919,-0.1764 -0.222,-0.1163 -0.3352,-0.2439 -0.3352,-0.3829 0,-0.0525 0.0838,-0.1464 0.2557,-0.2777 0.6158,-0.4617 0.9216,-0.9835 0.9216,-1.5729 0,-0.5781 -0.2094,-1.0548 -0.6326,-1.4339 -0.419,-0.3792 -0.9552,-0.5669 -1.6004,-0.5669 -0.6871,0 -1.2569,0.2103 -1.701,0.6306 -0.4483,0.4242 -0.6703,0.9573 -0.6703,1.6029 0,1.0324 0.4525,1.8545 1.3573,2.4626 0.905,0.608 2.1368,0.9121 3.6995,0.9121 1.2108,0 2.2833,-0.1614 3.2176,-0.488 0.9343,-0.3265 1.6759,-0.7958 2.233,-1.4039 0.3939,-0.4317 0.6704,-0.9422 0.8338,-1.5353 0.1634,-0.5893 0.2471,-1.479 0.2471,-2.6765l0 -7.6841c0,-0.732 0.1341,-1.2124 0.3981,-1.4414 0.2681,-0.2252 0.8546,-0.3754 1.7638,-0.4504l0 -1.145c-2.6786,0 -9.8343,-1.0833 -11.9835,1.0953z"/>
    <path id="_238322184" class="fil0" d="M186.039 25.8003c0,-0.2912 0.0633,-0.5156 0.1898,-0.6733 0.1267,-0.1577 0.2669,-0.3154 0.4207,-0.4732 0.1537,-0.1577 0.2939,-0.3457 0.4206,-0.564 0.1266,-0.2184 0.1899,-0.5217 0.1899,-0.9099l0 -14.74c0,-0.4125 -0.0633,-0.7218 -0.1899,-0.9281 -0.1267,-0.2062 -0.2714,-0.3882 -0.4342,-0.5459 -0.1628,-0.1577 -0.3076,-0.3154 -0.4342,-0.4731 -0.1266,-0.1577 -0.1899,-0.3822 -0.1899,-0.6733 0,-0.5581 0.0452,-0.9281 0.1356,-1.1101 0.0905,-0.182 0.389,-0.2729 0.8955,-0.2729l8.6561 0c0.6512,0 1.2799,0.1516 1.8859,0.4549 0.606,0.3033 1.1352,0.7461 1.5873,1.3284 0.4523,0.5823 0.8141,1.286 1.0854,2.1109 0.2714,0.8249 0.4071,1.747 0.4071,2.766 0,1.383 -0.1899,2.6205 -0.5698,3.7123 -0.38,1.0919 -0.9136,1.9047 -1.601,2.4385 -0.1086,0.097 -0.095,0.3215 0.0407,0.6733 0.1357,0.3518 0.2668,0.6733 0.3934,0.9644l1.7639 4.2947c0.1447,0.3639 0.3301,0.6551 0.5562,0.8734 0.2261,0.2184 0.4387,0.4065 0.6377,0.5642 0.199,0.1577 0.3709,0.3214 0.5155,0.4913 0.1447,0.1698 0.2171,0.4003 0.2171,0.6915 0,0.2912 -0.0045,0.5216 -0.0135,0.6915 -0.009,0.1699 -0.0452,0.3094 -0.1086,0.4185 -0.0633,0.1092 -0.1673,0.182 -0.312,0.2184 -0.1447,0.0364 -0.3437,0.0546 -0.597,0.0546l-3.5546 0c-0.3257,0 -0.5835,-0.0424 -0.7734,-0.1274 -0.19,-0.0849 -0.3482,-0.188 -0.4749,-0.3093 -0.1266,-0.1213 -0.2262,-0.2608 -0.2985,-0.4186 -0.0723,-0.1577 -0.1357,-0.3215 -0.1899,-0.4913l-2.6322 -7.279c-0.1446,-0.3639 -0.3617,-0.5459 -0.6512,-0.5459 -0.1809,0 -0.3436,0.0849 -0.4884,0.2548 -0.1447,0.1698 -0.2171,0.4245 -0.2171,0.7642l0 4.1855c0,0.3882 0.0724,0.6915 0.2171,0.9098 0.1448,0.2184 0.3075,0.4065 0.4884,0.5642 0.1809,0.1577 0.3437,0.3093 0.4884,0.4549 0.1448,0.1456 0.2172,0.3639 0.2172,0.6551 0,0.2912 -0.0046,0.5216 -0.0137,0.6915 -0.009,0.1699 -0.0542,0.3094 -0.1356,0.4185 -0.0814,0.1092 -0.199,0.182 -0.3528,0.2184 -0.1537,0.0364 -0.3844,0.0546 -0.6919,0.0546l-5.4541 0c-0.5066,0 -0.805,-0.091 -0.8955,-0.273 -0.0905,-0.1819 -0.1356,-0.5519 -0.1356,-1.11zm6.2681 -14.4852c0,0.8249 0,1.5104 0,2.0563 0,0.5459 0.0227,0.9766 0.0678,1.292 0.0453,0.3154 0.1267,0.5399 0.2442,0.6733 0.1177,0.1335 0.285,0.2002 0.502,0.2002 0.2533,0 0.5292,-0.0667 0.8277,-0.2002 0.2984,-0.1334 0.5743,-0.3579 0.8277,-0.6733 0.2532,-0.3154 0.4612,-0.7461 0.624,-1.292 0.1629,-0.5459 0.2352,-1.2314 0.2171,-2.0563 -0.0181,-0.8492 -0.1131,-1.5528 -0.285,-2.1109 -0.1718,-0.5581 -0.3798,-1.0009 -0.624,-1.3284 -0.2442,-0.3276 -0.5065,-0.5581 -0.7869,-0.6916 -0.2805,-0.1334 -0.5473,-0.2001 -0.8006,-0.2001 -0.217,0 -0.3843,0.0667 -0.502,0.2001 -0.1175,0.1335 -0.1989,0.37 -0.2442,0.7098 -0.0451,0.3397 -0.0678,0.7825 -0.0678,1.3283 0,0.546 0,1.2436 0,2.0928zm11.3696 14.4488c0,-0.2911 0.0633,-0.5155 0.1899,-0.6733 0.1267,-0.1577 0.2669,-0.3154 0.4206,-0.4731 0.1538,-0.1577 0.294,-0.3458 0.4206,-0.5642 0.1267,-0.2183 0.19,-0.5216 0.19,-0.9098l0 -14.7036c0,-0.4125 -0.0633,-0.7218 -0.19,-0.9281 -0.1266,-0.2062 -0.2714,-0.3882 -0.4342,-0.5459 -0.1628,-0.1577 -0.3075,-0.3154 -0.4341,-0.4731 -0.1266,-0.1577 -0.19,-0.3822 -0.19,-0.6733 0,-0.5095 0.0317,-0.8674 0.095,-1.0737 0.0633,-0.2062 0.285,-0.3093 0.6648,-0.3093l9.9314 0c0.5247,0 0.9272,0.0303 1.2076,0.0909 0.2804,0.0607 0.4839,0.37 0.6105,0.9281l0.8412 3.6759c0.0904,0.3397 0.0452,0.5944 -0.1357,0.7643 -0.1809,0.1698 -0.4161,0.2547 -0.7055,0.2547 -0.2533,0 -0.5155,-0.0727 -0.7869,-0.2183 -0.2171,-0.1214 -0.4161,-0.3336 -0.597,-0.637 -0.1809,-0.3032 -0.3664,-0.6126 -0.5562,-0.928 -0.19,-0.3155 -0.4025,-0.5945 -0.6377,-0.8371 -0.2352,-0.2426 -0.5246,-0.3639 -0.8684,-0.3639l-1.9808 0c-0.2171,0 -0.4025,0.0788 -0.5563,0.2365 -0.1538,0.1577 -0.2306,0.455 -0.2306,0.8917l0 5.8596 1.5738 0c0.3075,0 0.5382,-0.0849 0.692,-0.2547 0.1537,-0.1699 0.2894,-0.3579 0.407,-0.5642 0.1175,-0.2062 0.2352,-0.3943 0.3527,-0.5641 0.1176,-0.1698 0.2849,-0.2547 0.502,-0.2547 0.2171,0 0.389,0.006 0.5156,0.0181 0.1267,0.0122 0.2307,0.0607 0.312,0.1456 0.0815,0.0849 0.1357,0.2244 0.1629,0.4186 0.0272,0.194 0.0406,0.461 0.0406,0.8007l0 3.6395c0,0.6793 -0.0678,1.0797 -0.2035,1.201 -0.1357,0.1213 -0.4115,0.182 -0.8276,0.182 -0.2171,0 -0.3844,-0.085 -0.502,-0.2548 -0.1175,-0.1698 -0.2352,-0.364 -0.3527,-0.5823 -0.1176,-0.2184 -0.2533,-0.4125 -0.407,-0.5824 -0.1538,-0.1698 -0.3845,-0.2547 -0.692,-0.2547l-1.5738 0 0 6.0416c0,0.4367 0.0768,0.7339 0.2306,0.8916 0.1538,0.1577 0.3392,0.2366 0.5563,0.2366l2.7949 0c0.3437,0 0.6332,-0.1213 0.8683,-0.364 0.2352,-0.2426 0.4477,-0.5216 0.6378,-0.837 0.1898,-0.3155 0.3753,-0.6248 0.5561,-0.9281 0.1809,-0.3033 0.38,-0.5156 0.5971,-0.6369 0.2713,-0.1456 0.5336,-0.2184 0.7869,-0.2184 0.2894,0 0.5245,0.0849 0.7055,0.2548 0.1809,0.1698 0.2261,0.4246 0.1356,0.7643l-0.8411 3.6759c-0.1267,0.558 -0.3302,0.8674 -0.6105,0.928 -0.2805,0.0607 -0.6829,0.0911 -1.2076,0.0911l-10.447 0c-0.5066,0 -0.8051,-0.0911 -0.8954,-0.273 -0.0905,-0.182 -0.1357,-0.5521 -0.1357,-1.1101zm22.4678 -2.1109c-0.0904,0.2184 -0.0994,0.4124 -0.0271,0.5824 0.0723,0.1698 0.2081,0.2547 0.407,0.2547l3.3105 -0.0728c0.3437,0 0.6512,-0.1638 0.9225,-0.4914 0.2714,-0.3275 0.5202,-0.6914 0.7463,-1.0918 0.2262,-0.4003 0.4432,-0.7885 0.6512,-1.1647 0.208,-0.376 0.4206,-0.6247 0.6377,-0.746 0.2713,-0.1456 0.5427,-0.2184 0.814,-0.2184 0.3438,0 0.6332,0.091 0.8684,0.273 0.2351,0.1819 0.3075,0.4307 0.217,0.7461l-1.221 4.4038c-0.1447,0.558 -0.3482,0.8735 -0.6105,0.9463 -0.2624,0.0728 -0.6558,0.1091 -1.1805,0.1091l-10.9353 0c-0.6151,0 -0.9769,-0.3458 -1.0854,-1.0372 -0.1086,-0.6916 0.0633,-1.5226 0.5155,-2.4931l7.2722 -15.6863c0.1085,-0.2183 0.1221,-0.4003 0.0407,-0.5458 -0.0814,-0.1456 -0.2307,-0.2184 -0.4477,-0.2184l-3.1205 0c-0.3438,0 -0.6467,0.1577 -0.9091,0.4731 -0.2622,0.3154 -0.5065,0.6793 -0.7326,1.0918 -0.2262,0.4125 -0.4432,0.8068 -0.6512,1.1828 -0.2081,0.3762 -0.4207,0.6249 -0.6377,0.7462 -0.2714,0.1456 -0.5427,0.2184 -0.8141,0.2184 -0.3257,0 -0.606,-0.0911 -0.8412,-0.273 -0.2352,-0.182 -0.3166,-0.4307 -0.2442,-0.7461l1.004 -4.4038c0.0542,-0.2669 0.1311,-0.4731 0.2306,-0.6187 0.0995,-0.1456 0.2262,-0.2487 0.3799,-0.3094 0.1538,-0.0606 0.3302,-0.091 0.5292,-0.091 0.1989,0 0.4251,0 0.6783,0l10.7999 0c0.6873,0 1.0944,0.3094 1.221,0.9281 0.1266,0.6187 -0.0543,1.474 -0.5427,2.5658l-7.2451 15.6863zm9.7144 2.1109c0,-0.2911 0.0633,-0.5155 0.1899,-0.6733 0.1267,-0.1577 0.2669,-0.3154 0.4206,-0.4731 0.1538,-0.1577 0.294,-0.3458 0.4206,-0.5642 0.1266,-0.2183 0.1899,-0.5216 0.1899,-0.9098l0 -14.7036c0,-0.4125 -0.0633,-0.7218 -0.1899,-0.9281 -0.1266,-0.2062 -0.2713,-0.3882 -0.4341,-0.5459 -0.1629,-0.1577 -0.3076,-0.3154 -0.4343,-0.4731 -0.1266,-0.1577 -0.1899,-0.3822 -0.1899,-0.6733 0,-0.5095 0.0316,-0.8674 0.095,-1.0737 0.0633,-0.2062 0.285,-0.3093 0.6648,-0.3093l9.9315 0c0.5245,0 0.927,0.0303 1.2074,0.0909 0.2805,0.0607 0.484,0.37 0.6106,0.9281l0.8412 3.6759c0.0904,0.3397 0.0452,0.5944 -0.1357,0.7643 -0.1809,0.1698 -0.4161,0.2547 -0.7055,0.2547 -0.2533,0 -0.5156,-0.0727 -0.7869,-0.2183 -0.2171,-0.1214 -0.4161,-0.3336 -0.5969,-0.637 -0.181,-0.3032 -0.3664,-0.6126 -0.5564,-0.928 -0.1899,-0.3155 -0.4025,-0.5945 -0.6376,-0.8371 -0.2352,-0.2426 -0.5247,-0.3639 -0.8683,-0.3639l-1.9809 0c-0.2171,0 -0.4025,0.0788 -0.5563,0.2365 -0.1538,0.1577 -0.2306,0.455 -0.2306,0.8917l0 5.8596 1.5738 0c0.3075,0 0.5382,-0.0849 0.6919,-0.2547 0.1538,-0.1699 0.2895,-0.3579 0.407,-0.5642 0.1177,-0.2062 0.2352,-0.3943 0.3528,-0.5641 0.1176,-0.1698 0.285,-0.2547 0.502,-0.2547 0.2171,0 0.389,0.006 0.5156,0.0181 0.1266,0.0122 0.2306,0.0607 0.312,0.1456 0.0815,0.0849 0.1358,0.2244 0.1628,0.4186 0.0272,0.194 0.0408,0.461 0.0408,0.8007l0 3.6395c0,0.6793 -0.0678,1.0797 -0.2036,1.201 -0.1356,0.1213 -0.4115,0.182 -0.8276,0.182 -0.217,0 -0.3844,-0.085 -0.502,-0.2548 -0.1176,-0.1698 -0.2351,-0.364 -0.3528,-0.5823 -0.1175,-0.2184 -0.2532,-0.4125 -0.407,-0.5824 -0.1537,-0.1698 -0.3844,-0.2547 -0.6919,-0.2547l-1.5738 0 0 6.0416c0,0.4367 0.0768,0.7339 0.2306,0.8916 0.1538,0.1577 0.3392,0.2366 0.5563,0.2366l2.7949 0c0.3437,0 0.6332,-0.1213 0.8683,-0.364 0.2351,-0.2426 0.4477,-0.5216 0.6377,-0.837 0.19,-0.3155 0.3753,-0.6248 0.5563,-0.9281 0.1808,-0.3033 0.3799,-0.5156 0.5969,-0.6369 0.2714,-0.1456 0.5337,-0.2184 0.7869,-0.2184 0.2895,0 0.5247,0.0849 0.7056,0.2548 0.1808,0.1698 0.2261,0.4246 0.1356,0.7643l-0.8412 3.6759c-0.1266,0.558 -0.3301,0.8674 -0.6105,0.928 -0.2804,0.0607 -0.6829,0.0911 -1.2075,0.0911l-10.447 0c-0.5065,0 -0.805,-0.0911 -0.8955,-0.273 -0.0904,-0.182 -0.1356,-0.5521 -0.1356,-1.1101zm15.657 0.0364c0,-0.2912 0.0632,-0.5156 0.1898,-0.6733 0.1267,-0.1577 0.2669,-0.3154 0.4207,-0.4732 0.1537,-0.1577 0.2939,-0.3457 0.4206,-0.564 0.1266,-0.2184 0.1899,-0.5217 0.1899,-0.9099l0 -14.74c0,-0.4125 -0.0633,-0.7218 -0.1899,-0.9281 -0.1267,-0.2062 -0.2714,-0.3882 -0.4342,-0.5459 -0.1628,-0.1577 -0.3076,-0.3154 -0.4342,-0.4731 -0.1266,-0.1577 -0.1899,-0.3822 -0.1899,-0.6733 0,-0.5581 0.0452,-0.9281 0.1356,-1.1101 0.0905,-0.182 0.389,-0.2729 0.8955,-0.2729l5.4542 0c0.2532,0 0.4522,0.0181 0.5969,0.0545 0.1447,0.0364 0.2488,0.1092 0.312,0.2184 0.0633,0.1092 0.0995,0.2487 0.1086,0.4185 0.0091,0.1699 0.0136,0.4004 0.0136,0.6916 0,0.2911 -0.0633,0.5156 -0.19,0.6733 -0.1265,0.1577 -0.2668,0.3154 -0.4206,0.4731 -0.1537,0.1577 -0.2939,0.3397 -0.4205,0.5459 -0.1266,0.2063 -0.19,0.5156 -0.19,0.9281l0 3.9307c0,0.2668 0.0634,0.4003 0.19,0.4003 0.1266,0 0.2713,-0.1213 0.4341,-0.364l2.822 -4.6585c0.199,-0.3154 0.2985,-0.5398 0.2985,-0.6733 0,-0.1335 -0.0362,-0.2427 -0.1085,-0.3276 -0.0723,-0.0849 -0.1538,-0.1819 -0.2442,-0.2912 -0.0905,-0.1091 -0.1356,-0.3093 -0.1356,-0.6005 0,-0.558 0.0451,-0.9281 0.1356,-1.11 0.0904,-0.182 0.3889,-0.273 0.8954,-0.273l3.9075 0c0.2533,0 0.4522,0.0182 0.597,0.0546 0.1447,0.0364 0.2487,0.1092 0.312,0.2184 0.0634,0.1091 0.0996,0.2487 0.1086,0.4186 0.009,0.1698 0.0135,0.4003 0.0135,0.6914 0,0.2912 -0.0678,0.4853 -0.2035,0.5824 -0.1357,0.097 -0.303,0.188 -0.5019,0.2729 -0.199,0.0849 -0.4162,0.1941 -0.6513,0.3275 -0.2352,0.1335 -0.4523,0.3701 -0.6513,0.7098l-2.7678 4.6585c-0.1266,0.1942 -0.1854,0.3761 -0.1763,0.546 0.009,0.1698 0.0497,0.3396 0.1221,0.5095l4.2873 9.7539c0.1448,0.3396 0.3211,0.5944 0.5292,0.7642 0.208,0.1699 0.407,0.3155 0.597,0.4368 0.1899,0.1213 0.3482,0.2548 0.4748,0.4004 0.1266,0.1456 0.1899,0.3639 0.1899,0.6551 0,0.2911 -0.0045,0.5398 -0.0135,0.7461 -0.0091,0.2062 -0.0453,0.3821 -0.1086,0.5277 -0.0632,0.1455 -0.1673,0.2548 -0.3121,0.3276 -0.1446,0.0728 -0.3437,0.1091 -0.5969,0.1091l-3.5818 0c-0.3257,0 -0.5834,-0.0546 -0.7733,-0.1638 -0.1901,-0.1092 -0.3437,-0.2426 -0.4614,-0.4003 -0.1175,-0.1577 -0.208,-0.3336 -0.2714,-0.5277 -0.0633,-0.1941 -0.1311,-0.364 -0.2035,-0.5096l-3.1476 -7.2062c-0.0543,-0.1456 -0.1086,-0.2184 -0.1628,-0.2184 -0.0724,0 -0.1447,0.0607 -0.2171,0.1821 -0.0724,0.1212 -0.1538,0.2668 -0.2442,0.4367l-0.1086 0.1819c-0.1085,0.1942 -0.1808,0.3398 -0.217,0.4368 -0.0362,0.097 -0.0543,0.2548 -0.0543,0.4732l0 3.3119c0,0.3882 0.0634,0.6915 0.19,0.9099 0.1266,0.2183 0.2713,0.4063 0.4341,0.564 0.1628,0.1578 0.3075,0.3155 0.4341,0.4732 0.1267,0.1577 0.19,0.3821 0.19,0.6733 0,0.2912 -0.0045,0.5216 -0.0136,0.6915 -0.009,0.1699 -0.0452,0.3094 -0.1085,0.4185 -0.0633,0.1092 -0.1673,0.182 -0.3121,0.2184 -0.1446,0.0364 -0.3437,0.0546 -0.5969,0.0546l-5.4541 0c-0.5066,0 -0.8051,-0.091 -0.8955,-0.273 -0.0905,-0.1819 -0.1356,-0.5519 -0.1356,-1.11zm18.1262 0c0,-0.2912 0.0633,-0.5156 0.1899,-0.6733 0.1266,-0.1577 0.2668,-0.3154 0.4206,-0.4732 0.1537,-0.1577 0.2939,-0.3457 0.4206,-0.564 0.1266,-0.2184 0.19,-0.5217 0.19,-0.9099l0 -14.74c0,-0.4125 -0.0634,-0.7218 -0.19,-0.9281 -0.1267,-0.2062 -0.2714,-0.3882 -0.4342,-0.5459 -0.1628,-0.1577 -0.3076,-0.3154 -0.4341,-0.4731 -0.1267,-0.1577 -0.19,-0.3822 -0.19,-0.6733 0,-0.5581 0.0452,-0.9281 0.1357,-1.1101 0.0905,-0.182 0.3889,-0.2729 0.8954,-0.2729l5.4542 0c0.2532,0 0.4522,0.0181 0.597,0.0545 0.1447,0.0364 0.2487,0.1092 0.312,0.2184 0.0633,0.1092 0.0995,0.2487 0.1086,0.4185 0.009,0.1699 0.0135,0.4004 0.0135,0.6916 0,0.2911 -0.0633,0.5156 -0.1899,0.6733 -0.1266,0.1577 -0.2668,0.3154 -0.4206,0.4731 -0.1538,0.1577 -0.294,0.3397 -0.4206,0.5459 -0.1266,0.2063 -0.1899,0.5156 -0.1899,0.9281l0 14.74c0,0.3882 0.0633,0.6915 0.1899,0.9099 0.1266,0.2183 0.2713,0.4063 0.4341,0.564 0.1629,0.1578 0.3076,0.3155 0.4342,0.4732 0.1266,0.1577 0.1899,0.3821 0.1899,0.6733 0,0.2912 -0.0044,0.5216 -0.0135,0.6915 -0.0091,0.1699 -0.0452,0.3094 -0.1086,0.4185 -0.0633,0.1092 -0.1673,0.182 -0.312,0.2184 -0.1447,0.0364 -0.3437,0.0546 -0.597,0.0546l-5.4541 0c-0.5066,0 -0.8051,-0.091 -0.8954,-0.273 -0.0906,-0.1819 -0.1357,-0.5519 -0.1357,-1.11z"/>
    <path id="_238322976" class="fil0" d="M140.951 37.5791l0 3.336 0.738 0c0.8377,0 1.4486,-0.1917 1.8324,-0.5724 0.3839,-0.3834 0.5747,-0.9904 0.5747,-1.8211 0,-0.8307 -0.1548,-1.4511 -0.4623,-1.8558 -0.3096,-0.4046 -0.7783,-0.607 -1.4082,-0.607 -0.5133,0 -0.8547,0.0959 -1.0222,0.2902 -0.1676,0.1971 -0.2524,0.6044 -0.2524,1.2301zm-2.299 -0.1172c0,-0.5218 -0.0678,-0.8599 -0.2014,-1.0224 -0.1358,-0.1597 -0.4327,-0.2662 -0.8929,-0.3195l0 -0.812 5.0094 0c1.3382,0 2.3328,0.2583 2.9882,0.7774 0.6552,0.5166 0.9818,1.2993 0.9818,2.3509 0,1.1476 -0.335,1.9863 -1.0031,2.5161 -0.6701,0.5271 -1.7432,0.7907 -3.2236,0.7907l-1.3594 0c-0.0009,0.0917 0.0501,2.7604 -0.1022,3.5259l-2.1779 2.0905c-0.0093,0.0089 -0.0189,-8.5609 -0.0189,-9.8976z"/>
    <path id="_238322592" class="fil0" d="M145.431 45.947c-0.0659,-0.6757 -0.229,-1.236 -0.4892,-1.6808 -0.2603,-0.4449 -0.6535,-0.8291 -1.1795,-1.1529 -0.2674,-0.1635 -0.5102,-0.2868 -0.7284,-0.3697 -0.2271,-0.0862 -0.4281,-0.1393 -0.6029,-0.1593 -0.1749,-0.0199 -0.33,-0.0221 -0.4653,-0.0063 -0.1352,0.0158 -0.2509,0.039 -0.3468,0.0696 -0.096,0.0307 -0.1731,0.0504 -0.2316,0.0593 -0.108,0.0208 -0.2014,0.0164 -0.28,-0.0134 -0.1047,-0.0398 -0.1916,-0.109 -0.2604,-0.2075 -0.069,-0.0984 -0.1159,-0.2118 -0.1409,-0.3401 -0.025,-0.1282 -0.0229,-0.2617 0.0061,-0.4004 0.0291,-0.1387 0.0945,-0.2714 0.1964,-0.3979 0.1146,-0.1424 0.2875,-0.2703 0.5187,-0.3839 0.2312,-0.1135 0.503,-0.1962 0.8154,-0.2479 0.3125,-0.0518 0.6543,-0.0639 1.0257,-0.0364 0.3712,0.0274 0.7576,0.1174 1.1593,0.27 0.6655,0.2424 1.2481,0.5773 1.7478,1.0047 0.4996,0.4272 0.9005,0.9204 1.2029,1.4794 0.3024,0.5589 0.4982,1.1652 0.5876,1.8188 0.0893,0.6536 0.0608,1.3296 -0.0854,2.0279 -2.2712,10.8438 -18.9878,-1.4822 -12.2199,-4.6568 0.4736,-0.2222 2.0563,-0.5695 2.2044,0.5047 0.1795,1.3025 -3.2811,6.4564 5.1129,6.4529 1.0024,0 1.6216,-0.2466 2.038,-1.0111 0.1608,-0.2952 0.2851,-0.6636 0.3729,-1.1054 0.0878,-0.4416 0.1018,-0.9476 0.0422,-1.5175z"/>
    <path id="_238322664" class="fil0" d="M180.113 37.5878l0 3.0398 0.9068 0c1.0291,0 1.7794,-0.1747 2.2511,-0.5217 0.4715,-0.3493 0.7061,-0.9024 0.7061,-1.6593 0,-0.7569 -0.1903,-1.3221 -0.568,-1.6909 -0.3804,-0.3688 -0.9562,-0.5531 -1.7301,-0.5531 -0.6305,0 -1.05,0.0873 -1.2558,0.2644 -0.2058,0.1795 -0.3101,0.5507 -0.3101,1.1208zm-2.8243 -0.1067c0,-0.4755 -0.0834,-0.7837 -0.2476,-0.9316 -0.1668,-0.1456 -0.5315,-0.2426 -1.0969,-0.2912l0 -0.7399 6.1542 0c1.644,0 2.8661,0.2354 3.6711,0.7084 0.8051,0.4706 1.2064,1.1839 1.2064,2.1421 0,1.0457 -0.4117,1.8098 -1.2324,2.2927 -0.8234,0.4803 -2.1417,0.7205 -3.9603,0.7205l-1.6702 0 0 2.785c0,0.4731 0.0938,0.7836 0.2814,0.9316 0.1902,0.1456 0.6254,0.2426 1.3132,0.2911l0 0.7399 -5.7634 0 0 -0.7399c0.5654,-0.0485 0.9301,-0.1455 1.0969,-0.2911 0.1642,-0.148 0.2476,-0.4585 0.2476,-0.9316l0 -6.686zm12.3422 4.0635l2.3605 0 0 -0.1359c0,-0.8757 -0.0911,-1.5017 -0.2709,-1.8729 -0.1798,-0.3711 -0.482,-0.5579 -0.9041,-0.5579 -0.4142,0 -0.7087,0.1844 -0.8833,0.5507 -0.1746,0.3688 -0.2761,1.0407 -0.3022,2.016zm4.9401 0.6672l-4.9245 0c-0.0052,0.0654 -0.0078,0.1382 -0.0103,0.2158 -0.0027,0.0801 -0.0053,0.1917 -0.0053,0.3397 0,0.9583 0.1433,1.6618 0.4273,2.1154 0.2866,0.4537 0.7322,0.6794 1.3366,0.6794 0.469,0 0.9068,-0.1456 1.3131,-0.4367 0.4066,-0.2936 0.7583,-0.7085 1.0553,-1.2494l0.7322 0.2425c-0.3205,0.7473 -0.7868,1.3101 -1.3966,1.6837 -0.6123,0.3761 -1.3653,0.5629 -2.2616,0.5629 -0.5237,0 -1.0135,-0.085 -1.472,-0.2548 -0.4586,-0.1722 -0.8651,-0.4148 -1.2221,-0.7326 -0.4168,-0.3809 -0.7347,-0.8273 -0.9536,-1.3416 -0.2188,-0.5144 -0.3283,-1.0772 -0.3283,-1.6885 0,-1.1936 0.37,-2.164 1.11,-2.9136 0.74,-0.7496 1.6962,-1.1233 2.866,-1.1233 1.1204,0 2.0219,0.347 2.7071,1.0384 0.6853,0.6914 1.0267,1.6132 1.0267,2.7632l0 0.0995zm1.0239 3.9179l0 -0.6671c0.3256,-0.0486 0.542,-0.1359 0.6514,-0.2621 0.1094,-0.1285 0.1642,-0.3832 0.1642,-0.7617l0 -4.3352c0,-0.3712 -0.0548,-0.6066 -0.1642,-0.7084 -0.1094,-0.1019 -0.3439,-0.1578 -0.7061,-0.1674l0 -0.6817c0.5967,-0.034 1.1464,-0.0679 1.6493,-0.1067 0.5028,-0.0389 0.9848,-0.0801 1.4433,-0.1287l0 1.7637c0.2789,-0.5555 0.6046,-0.9679 0.9771,-1.2372 0.3701,-0.2693 0.7947,-0.4051 1.2741,-0.4051 0.4794,0 0.873,0.131 1.1803,0.3954 0.3075,0.262 0.4612,0.5943 0.4612,0.9971 0,0.3469 -0.1146,0.6258 -0.3465,0.837 -0.2319,0.211 -0.5341,0.3153 -0.9041,0.3153 -0.2971,0 -0.5419,-0.0776 -0.7374,-0.2304 -0.1954,-0.1553 -0.2944,-0.3445 -0.2944,-0.5726 0,-0.0242 0.0026,-0.0509 0.0078,-0.0825 0.0052,-0.0291 0.013,-0.0655 0.0235,-0.1019l0.0756 -0.3056c0.0051,-0.0146 0.0103,-0.0316 0.013,-0.051 0.0025,-0.0194 0.0025,-0.0412 0.0025,-0.0704 0,-0.0655 -0.0234,-0.1188 -0.0677,-0.1576 -0.0469,-0.0364 -0.112,-0.0558 -0.198,-0.0558 -0.3127,0 -0.6019,0.2814 -0.8676,0.8467 -0.2684,0.5628 -0.4012,1.2639 -0.4012,2.1033l0 2.1397c0,0.3785 0.0625,0.6453 0.1901,0.7957 0.1277,0.1529 0.3414,0.2281 0.6436,0.2281l0.3881 0 0 0.6671 -4.4579 0zm15.3333 -1.6909c0,0.3688 0.0549,0.621 0.1668,0.7544 0.1121,0.1311 0.3309,0.2208 0.6566,0.2694l0 0.6671 -4.062 0 0 -0.6671c0.3153,-0.034 0.529,-0.114 0.6411,-0.245 0.112,-0.1311 0.1692,-0.3906 0.1692,-0.7788l0 -3.2702c0,-0.5823 -0.0625,-0.9801 -0.1875,-1.1936 -0.1251,-0.2135 -0.3414,-0.3203 -0.6513,-0.3203 -0.4586,0 -0.8183,0.2135 -1.0788,0.6405 -0.2631,0.427 -0.3934,1.0189 -0.3934,1.7758l0 2.3678c0,0.3882 0.0573,0.6477 0.172,0.7788 0.1146,0.131 0.3282,0.211 0.6435,0.245l0 0.6671 -4.0515 0 0 -0.6671c0.3256,-0.0486 0.5419,-0.1359 0.6513,-0.2621 0.1094,-0.1285 0.1642,-0.3832 0.1642,-0.7617l0 -7.6006c0,-0.3543 -0.0599,-0.5895 -0.1824,-0.7036 -0.1224,-0.114 -0.3595,-0.1747 -0.7113,-0.1843l0 -0.6599c0.4977,-0.0194 1.0214,-0.0558 1.5659,-0.114 0.5445,-0.0558 1.1282,-0.1359 1.7483,-0.2402l0 4.8617c0.3856,-0.461 0.7973,-0.803 1.2298,-1.0286 0.4325,-0.2256 0.8911,-0.3372 1.3809,-0.3372 0.7582,0 1.3028,0.2425 1.6337,0.7277 0.3308,0.4877 0.4949,1.3004 0.4949,2.4431l0 2.8359zm2.2434 -8.3939c0,-0.3178 0.1277,-0.5823 0.3857,-0.7933 0.2579,-0.2111 0.5809,-0.3154 0.9744,-0.3154 0.3908,0 0.7165,0.1068 0.9796,0.3202 0.2632,0.2135 0.3934,0.4755 0.3934,0.7885 0,0.3178 -0.125,0.5749 -0.3777,0.7739 -0.2527,0.1989 -0.5837,0.2984 -0.9953,0.2984 -0.4091,0 -0.7373,-0.0995 -0.9849,-0.2984 -0.2501,-0.199 -0.3752,-0.4561 -0.3752,-0.7739zm-0.5002 10.0848l0 -0.6671c0.3256,-0.0486 0.5419,-0.1359 0.6513,-0.2621 0.1095,-0.1285 0.1642,-0.3832 0.1642,-0.7617l0 -4.3377c0,-0.3542 -0.0573,-0.587 -0.172,-0.6962 -0.1146,-0.1092 -0.3465,-0.1675 -0.6982,-0.1771l0 -0.6817c0.5185,-0.0243 1.0578,-0.0558 1.618,-0.0922 0.5602,-0.0389 1.1333,-0.085 1.7248,-0.1432l0 6.1281c0,0.3785 0.0548,0.6332 0.1642,0.7617 0.1094,0.1262 0.3256,0.2135 0.6461,0.2621l0 0.6671 -4.0984 0zm9.9399 -0.9898c-0.4638,0.4051 -0.9275,0.7084 -1.3939,0.9146 -0.4664,0.2062 -0.9301,0.3106 -1.3939,0.3106 -0.6357,0 -1.1595,-0.182 -1.5738,-0.5484 -0.4117,-0.3639 -0.6175,-0.8272 -0.6175,-1.3925 0,-0.7957 0.396,-1.4167 1.1881,-1.8607 0.7895,-0.4464 2.0011,-0.7278 3.6295,-0.8467l0 -1.0431c0,-0.6599 -0.1094,-1.1112 -0.3283,-1.3562 -0.2189,-0.245 -0.5993,-0.3663 -1.1386,-0.3663 -0.2371,0 -0.4455,0.0339 -0.6254,0.1044 -0.1771,0.0678 -0.2657,0.1406 -0.2657,0.2158 0,0.0098 0.013,0.0388 0.0442,0.0849 0.0157,0.0243 0.0261,0.0413 0.0314,0.051l0.2214 0.3202c0.0444,0.0655 0.0834,0.148 0.1094,0.245 0.0287,0.0971 0.0418,0.1941 0.0418,0.2936 0,0.2863 -0.1147,0.5216 -0.3414,0.7083 -0.2293,0.1869 -0.5289,0.2815 -0.8936,0.2815 -0.3779,0 -0.6827,-0.0995 -0.9172,-0.2984 -0.2345,-0.1989 -0.3517,-0.4609 -0.3517,-0.7836 0,-0.541 0.3074,-0.9849 0.9249,-1.3367 0.6149,-0.3517 1.4148,-0.5265 2.3971,-0.5265 1.1907,0 2.0687,0.233 2.6341,0.6963 0.5654,0.4658 0.8469,1.1911 0.8469,2.1786l0 3.6656c0,0.131 0.026,0.2281 0.0755,0.2936 0.0521,0.063 0.1303,0.0945 0.2371,0.0945 0.0729,0 0.1719,-0.0266 0.3022,-0.0776 0.1303,-0.0509 0.2189,-0.0776 0.2631,-0.0776 0.0626,0 0.1173,0.0243 0.1642,0.0752 0.0495,0.0485 0.073,0.1044 0.073,0.1674 0,0.2087 -0.1877,0.4197 -0.5654,0.638 -0.3752,0.2184 -0.7791,0.3276 -1.2063,0.3276 -0.3909,0 -0.714,-0.0922 -0.9693,-0.2766 -0.2553,-0.1844 -0.456,-0.478 -0.6019,-0.8758zm-0.1615 -2.8045c-0.8104,0.1093 -1.4121,0.3057 -1.8082,0.592 -0.3987,0.2887 -0.5967,0.6648 -0.5967,1.1354 0,0.3202 0.0964,0.5749 0.2893,0.7593 0.1954,0.1844 0.4611,0.2766 0.8024,0.2766 0.4586,0 0.7973,-0.1674 1.0162,-0.4998 0.2188,-0.3348 0.3282,-0.8515 0.3282,-1.5526 0,-0.0801 -0.0025,-0.1674 -0.0052,-0.2644 -0.0026,-0.0947 -0.0104,-0.2427 -0.026,-0.4465zm4.4659 3.9229l0 -2.7001 0.7086 0c0.3778,0.7448 0.7661,1.2833 1.1672,1.6205 0.4013,0.3373 0.8599,0.5046 1.3758,0.5046 0.396,0 0.7191,-0.0994 0.9718,-0.2959 0.2527,-0.1965 0.3779,-0.4488 0.3779,-0.757 0,-0.473 -0.5368,-0.9 -1.6103,-1.2784 -0.112,-0.0388 -0.198,-0.068 -0.2579,-0.0922 -1.0735,-0.3833 -1.8212,-0.7739 -2.2407,-1.1694 -0.4195,-0.3954 -0.6306,-0.8879 -0.6306,-1.4749 0,-0.6793 0.2554,-1.2325 0.766,-1.6619 0.5107,-0.4293 1.1804,-0.6429 2.0038,-0.6429 0.4272,0 0.8779,0.0801 1.3496,0.2402 0.4741,0.1625 0.7295,0.2426 0.7712,0.2426 0.1172,0 0.2136,-0.034 0.2943,-0.1018 0.0782,-0.0704 0.1304,-0.1651 0.1564,-0.2888l0.6566 0 0 2.3096 -0.6878 0c-0.2684,-0.5677 -0.5967,-0.9995 -0.9797,-1.2931 -0.383,-0.2935 -0.8129,-0.4415 -1.2845,-0.4415 -0.4117,0 -0.7452,0.0873 -0.9953,0.2595 -0.2528,0.1723 -0.3778,0.4004 -0.3778,0.6794 0,0.4318 0.5445,0.8297 1.6336,1.1935 0.125,0.0437 0.2215,0.0777 0.2892,0.0995 1.1439,0.3881 1.9281,0.7812 2.3502,1.1742 0.4221,0.393 0.6331,0.8952 0.6331,1.5066 0,0.7544 -0.2553,1.3537 -0.7634,1.8024 -0.508,0.4488 -1.1907,0.6721 -2.0453,0.6721 -0.5289,0 -1.0709,-0.0874 -1.6258,-0.2621 -0.555,-0.1771 -0.8416,-0.2644 -0.8625,-0.2644 -0.1016,0 -0.1979,0.0388 -0.2892,0.1116 -0.0911,0.0727 -0.1746,0.1747 -0.2449,0.3081l-0.6096 0zm12.4204 -1.1184c-0.4638,0.4051 -0.9275,0.7084 -1.394,0.9146 -0.4664,0.2062 -0.9301,0.3106 -1.3939,0.3106 -0.6357,0 -1.1594,-0.182 -1.5737,-0.5484 -0.4117,-0.3639 -0.6175,-0.8272 -0.6175,-1.3925 0,-0.7957 0.396,-1.4167 1.188,-1.8607 0.7896,-0.4464 2.0012,-0.7278 3.6296,-0.8467l0 -1.0431c0,-0.6599 -0.1094,-1.1112 -0.3284,-1.3562 -0.2188,-0.245 -0.5992,-0.3663 -1.1385,-0.3663 -0.2371,0 -0.4455,0.0339 -0.6254,0.1044 -0.1771,0.0678 -0.2657,0.1406 -0.2657,0.2158 0,0.0098 0.013,0.0388 0.0443,0.0849 0.0156,0.0243 0.026,0.0413 0.0313,0.051l0.2214 0.3202c0.0443,0.0655 0.0834,0.148 0.1094,0.245 0.0286,0.0971 0.0417,0.1941 0.0417,0.2936 0,0.2863 -0.1146,0.5216 -0.3413,0.7083 -0.2293,0.1869 -0.5289,0.2815 -0.8936,0.2815 -0.3779,0 -0.6827,-0.0995 -0.9173,-0.2984 -0.2344,-0.1989 -0.3517,-0.4609 -0.3517,-0.7836 0,-0.541 0.3075,-0.9849 0.925,-1.3367 0.6149,-0.3517 1.4148,-0.5265 2.397,-0.5265 1.1908,0 2.0688,0.233 2.6341,0.6963 0.5655,0.4658 0.8469,1.1911 0.8469,2.1786l0 3.6656c0,0.131 0.0261,0.2281 0.0756,0.2936 0.052,0.063 0.1302,0.0945 0.2371,0.0945 0.0729,0 0.1719,-0.0266 0.3022,-0.0776 0.1303,-0.0509 0.2189,-0.0776 0.2631,-0.0776 0.0625,0 0.1174,0.0243 0.1642,0.0752 0.0495,0.0485 0.0729,0.1044 0.0729,0.1674 0,0.2087 -0.1876,0.4197 -0.5653,0.638 -0.3753,0.2184 -0.7791,0.3276 -1.2064,0.3276 -0.3908,0 -0.7139,-0.0922 -0.9692,-0.2766 -0.2554,-0.1844 -0.456,-0.478 -0.6019,-0.8758zm-0.1615 -2.8045c-0.8104,0.1093 -1.4122,0.3057 -1.8083,0.592 -0.3986,0.2887 -0.5967,0.6648 -0.5967,1.1354 0,0.3202 0.0964,0.5749 0.2893,0.7593 0.1954,0.1844 0.4612,0.2766 0.8024,0.2766 0.4587,0 0.7973,-0.1674 1.0163,-0.4998 0.2188,-0.3348 0.3282,-0.8515 0.3282,-1.5526 0,-0.0801 -0.0026,-0.1674 -0.0052,-0.2644 -0.0027,-0.0947 -0.0104,-0.2427 -0.026,-0.4465zm12.1208 2.1034c0,0.3688 0.0546,0.621 0.1667,0.7544 0.112,0.1311 0.3283,0.2208 0.6488,0.2694l0 0.6671 -4.0672 0 0 -0.6671c0.3204,-0.034 0.5393,-0.1165 0.6566,-0.2499 0.1173,-0.131 0.1746,-0.3906 0.1746,-0.7739l0 -3.2702c0,-0.5823 -0.0626,-0.9801 -0.1903,-1.1936 -0.1277,-0.2135 -0.3464,-0.3203 -0.6566,-0.3203 -0.4585,0 -0.8207,0.2135 -1.0865,0.6429 -0.2683,0.4295 -0.4012,1.0214 -0.4012,1.7734l0 2.3678c0,0.3833 0.0574,0.6429 0.1746,0.7739 0.1172,0.1334 0.3361,0.2159 0.6566,0.2499l0 0.6671 -4.0672 0 0 -0.6671c0.3257,-0.0486 0.5419,-0.1359 0.6513,-0.2621 0.1095,-0.1285 0.1642,-0.3832 0.1642,-0.7617l0 -4.3352c0,-0.3518 -0.0573,-0.5823 -0.1746,-0.6914 -0.1172,-0.1093 -0.3491,-0.1699 -0.6956,-0.1844l0 -0.6817c0.5966,-0.034 1.1464,-0.0679 1.6493,-0.1067 0.5029,-0.0389 0.9848,-0.0801 1.4434,-0.1287l0 1.7346c0.4064,-0.541 0.8442,-0.9437 1.3132,-1.2105 0.4664,-0.2693 0.9666,-0.4027 1.4956,-0.4027 0.7633,0 1.3106,0.245 1.644,0.735 0.3335,0.4901 0.5003,1.3028 0.5003,2.4358l0 2.8359z"/>
    <path id="_238319976" class="fil0" d="M152.427 42.2848l2.4097 0 0 -0.1358c0,-0.8758 -0.093,-1.5017 -0.2766,-1.8729 -0.1835,-0.3711 -0.492,-0.5579 -0.9229,-0.5579 -0.4229,0 -0.7235,0.1843 -0.9017,0.5507 -0.1782,0.3687 -0.2819,1.0407 -0.3085,2.0159zm5.043 0.6672l-5.0271 0c-0.0053,0.0655 -0.008,0.1383 -0.0106,0.2159 -0.0027,0.0801 -0.0053,0.1917 -0.0053,0.3397 0,0.9582 0.1462,1.6617 0.4362,2.1154 0.2926,0.4536 0.7474,0.6793 1.3644,0.6793 0.4788,0 0.9257,-0.1456 1.3405,-0.4367 0.415,-0.2936 0.7741,-0.7084 1.0773,-1.2494l0.7474 0.2426c-0.3271,0.7472 -0.8032,1.31 -1.4257,1.6837 -0.625,0.376 -1.3937,0.5628 -2.3087,0.5628 -0.5346,0 -1.0346,-0.0849 -1.5027,-0.2547 -0.4681,-0.1722 -0.8831,-0.4149 -1.2475,-0.7327 -0.4255,-0.3808 -0.75,-0.8272 -0.9734,-1.3416 -0.2234,-0.5143 -0.3352,-1.0771 -0.3352,-1.6884 0,-1.1936 0.3777,-2.1641 1.1331,-2.9137 0.7554,-0.7496 1.7315,-1.1232 2.9257,-1.1232 1.1437,0 2.0641,0.3469 2.7636,1.0383 0.6995,0.6915 1.048,1.6133 1.048,2.7632l0 0.0995zm1.8538 -5.3735c0,-0.3397 -0.0638,-0.5726 -0.1915,-0.6915 -0.1276,-0.1213 -0.367,-0.1868 -0.7209,-0.1965l0 -0.6598c0.5028,-0.0194 1.0347,-0.0559 1.5906,-0.1141 0.5559,-0.0558 1.1624,-0.1358 1.822,-0.2402l0 9.5027c0,0.3687 0.0585,0.621 0.1755,0.7544 0.1171,0.131 0.3405,0.2208 0.6729,0.2693l0 0.6672 -4.1811 0 0 -0.6672c0.3324,-0.0485 0.5532,-0.1358 0.665,-0.262 0.1117,-0.1286 0.1675,-0.3832 0.1675,-0.7617l0 -7.6006zm4.8381 -0.7934c0,-0.3178 0.1304,-0.5822 0.3937,-0.7932 0.2633,-0.2111 0.5931,-0.3155 0.9948,-0.3155 0.3988,0 0.7314,0.1068 1,0.3203 0.2686,0.2135 0.4016,0.4754 0.4016,0.7884 0,0.3178 -0.1277,0.575 -0.3856,0.7739 -0.258,0.199 -0.5959,0.2984 -1.016,0.2984 -0.4177,0 -0.7528,-0.0994 -1.0055,-0.2984 -0.2553,-0.1989 -0.383,-0.4561 -0.383,-0.7739zm-0.5107 10.0849l0 -0.6672c0.3325,-0.0485 0.5532,-0.1358 0.6649,-0.262 0.1118,-0.1286 0.1677,-0.3832 0.1677,-0.7617l0 -4.3377c0,-0.3542 -0.0586,-0.5871 -0.1757,-0.6962 -0.117,-0.1092 -0.3537,-0.1675 -0.7127,-0.1772l0 -0.6817c0.5293,-0.0242 1.0799,-0.0558 1.6517,-0.0922 0.5719,-0.0388 1.157,-0.0849 1.7607,-0.1431l0 6.1281c0,0.3785 0.056,0.6331 0.1677,0.7617 0.1116,0.1262 0.3324,0.2135 0.6596,0.262l0 0.6672 -4.1839 0z"/>
   </g>
   <g>
    <path id="_238320168" class="fil1 str1" d="M36.6876 2.1311c15.7845,0 28.5851,11.5098 28.5851,25.7025 0,14.1928 -12.8006,25.7026 -28.5851,25.7026 -15.7844,0 -28.585,-11.5098 -28.585,-25.7026 0,-14.1927 12.8006,-25.7025 28.585,-25.7025z"/>
    <path id="_238323216" class="fil1 str2" d="M36.6876 3.8253c14.7441,0 26.7009,10.7511 26.7009,24.0083 0,13.2573 -11.9568,24.0084 -26.7009,24.0084 -14.744,0 -26.7008,-10.7511 -26.7008,-24.0084 0,-13.2572 11.9568,-24.0083 26.7008,-24.0083z"/>
    <path id="_238323336" class="fil0" d="M35.4897 42.1879c0,-0.2801 0.0717,-0.4961 0.2151,-0.6478 0.1434,-0.1517 0.3021,-0.3035 0.4763,-0.4552 0.1741,-0.1518 0.3329,-0.3326 0.4762,-0.5428 0.1434,-0.2101 0.2151,-0.5019 0.2151,-0.8754l0 -14.1815c0,-0.3969 -0.0717,-0.6946 -0.2151,-0.893 -0.1433,-0.1984 -0.3072,-0.3735 -0.4916,-0.5253 -0.1844,-0.1517 -0.3482,-0.3034 -0.4916,-0.4552 -0.1434,-0.1517 -0.2151,-0.3677 -0.2151,-0.6479 0,-0.5368 0.0513,-0.8928 0.1537,-1.0679 0.1024,-0.1751 0.4404,-0.2626 1.0139,-0.2626l9.8018 0c0.7374,0 1.4493,0.1459 2.1355,0.4377 0.6862,0.2917 1.2853,0.7179 1.7975,1.278 0.5121,0.5604 0.9217,1.2374 1.2291,2.031 0.3072,0.7937 0.4609,1.6808 0.4609,2.6613 0,1.3306 -0.2151,2.5212 -0.6454,3.5717 -0.4301,1.0504 -1.0343,1.8325 -1.8127,2.346 -0.123,0.0934 -0.1076,0.3094 0.046,0.6479 0.1537,0.3384 0.3022,0.6478 0.4455,0.9279l1.9972 4.1319c0.164,0.3502 0.3739,0.6303 0.63,0.8405 0.256,0.21 0.4967,0.391 0.722,0.5426 0.2253,0.1518 0.4199,0.3094 0.5838,0.4729 0.164,0.1633 0.2459,0.3851 0.2459,0.6652 0,0.2801 -0.0052,0.502 -0.0154,0.6653 -0.0103,0.1634 -0.0513,0.2977 -0.1229,0.4027 -0.0717,0.105 -0.1895,0.1751 -0.3534,0.21 -0.1638,0.0351 -0.3892,0.0526 -0.676,0.0526l-4.0252 0c-0.3686,0 -0.6606,-0.0409 -0.8757,-0.1225 -0.215,-0.0817 -0.3942,-0.181 -0.5377,-0.2977 -0.1434,-0.1167 -0.256,-0.2509 -0.3379,-0.4027 -0.082,-0.1517 -0.1537,-0.3093 -0.2151,-0.4727l-2.9805 -7.0033c-0.1639,-0.3501 -0.4097,-0.5252 -0.7375,-0.5252 -0.2048,0 -0.3891,0.0818 -0.553,0.2451 -0.1639,0.1634 -0.2459,0.4085 -0.2459,0.7354l0 4.0269c0,0.3735 0.082,0.6653 0.2459,0.8753 0.1639,0.2101 0.3482,0.3911 0.553,0.5428 0.2049,0.1518 0.3893,0.2977 0.5531,0.4377 0.1639,0.14 0.2458,0.3502 0.2458,0.6303 0,0.2801 -0.0051,0.502 -0.0153,0.6653 -0.0103,0.1634 -0.0614,0.2977 -0.1536,0.4027 -0.0923,0.105 -0.2253,0.1751 -0.3995,0.21 -0.1741,0.0351 -0.4353,0.0526 -0.7835,0.0526l-6.1761 0c-0.5735,0 -0.9115,-0.0875 -1.014,-0.2626 -0.1024,-0.1751 -0.1536,-0.5311 -0.1536,-1.068zm-6.0653 -13.4593c-0.2254,-0.3269 -0.635,-0.6887 -1.2291,-1.0855 -0.5941,-0.3968 -1.2649,-0.8287 -2.0126,-1.2956 -0.7476,-0.467 -1.526,-0.9746 -2.3352,-1.5232 -0.8091,-0.5486 -1.5517,-1.1438 -2.2277,-1.7858 -0.6759,-0.642 -1.229,-1.3249 -1.6592,-2.0485 -0.4301,-0.7237 -0.6452,-1.5058 -0.6452,-2.3462 0,-1.1672 0.1843,-2.1943 0.5531,-3.0814 0.3686,-0.8871 0.891,-1.634 1.567,-2.241 0.676,-0.6069 1.4902,-1.0681 2.4428,-1.3832 0.9524,-0.3151 2.0126,-0.4727 3.1801,-0.4727 0.717,0 1.48,0.1225 2.2892,0.3677 0.8091,0.2451 1.567,0.5777 2.2737,0.998 0.7067,0.4201 1.3162,0.9104 1.8283,1.4706 0.512,0.5603 0.8296,1.1556 0.9525,1.7859 0.0819,0.4202 0.0819,0.7995 0,1.138 -0.082,0.3386 -0.2151,0.6244 -0.3995,0.8579 -0.1843,0.2335 -0.4096,0.4085 -0.676,0.5252 -0.2662,0.1168 -0.553,0.1751 -0.8603,0.1751 -0.5121,0 -1.014,-0.1692 -1.5056,-0.5077 -0.4916,-0.3385 -0.8706,-0.8695 -1.1368,-1.5933 -0.1434,-0.4201 -0.3483,-0.7995 -0.6146,-1.138 -0.2663,-0.3385 -0.5633,-0.6245 -0.8911,-0.8579 -0.3277,-0.2334 -0.6811,-0.4027 -1.0601,-0.5077 -0.3789,-0.1051 -0.7528,-0.1225 -1.1214,-0.0525 -0.3688,0.07 -0.7016,0.21 -0.9987,0.4201 -0.297,0.2102 -0.5377,0.4553 -0.722,0.7353 -0.1844,0.2802 -0.2919,0.5779 -0.3227,0.893 -0.0307,0.3151 0.0461,0.6012 0.2305,0.858 0.3072,0.42 0.7784,0.8462 1.4134,1.278 0.635,0.4319 1.3366,0.8871 2.1047,1.3657 0.7682,0.4785 1.5517,0.9921 2.3506,1.5407 0.7989,0.5486 1.5313,1.138 2.197,1.7683 0.6658,0.6303 1.2086,1.3073 1.6285,2.031 0.4199,0.7236 0.6299,1.5173 0.6299,2.381 0,2.3578 -0.676,4.097 -2.028,5.2175 -1.3519,1.1205 -3.2058,1.6808 -5.5615,1.6808 -1.147,0 -2.1866,-0.1518 -3.1187,-0.4552 -0.932,-0.3035 -1.736,-0.6829 -2.412,-1.138 -0.676,-0.4553 -1.2137,-0.9338 -1.6132,-1.4357 -0.3994,-0.5019 -0.6401,-0.9513 -0.722,-1.3481 -0.1024,-0.537 -0.1076,-1.0155 -0.0154,-1.4357 0.0922,-0.4203 0.2407,-0.7762 0.4455,-1.068 0.2049,-0.2919 0.4558,-0.5195 0.7528,-0.6828 0.297,-0.1634 0.6095,-0.2452 0.9372,-0.2452 0.4711,0 0.9269,0.1926 1.3673,0.5778 0.4405,0.3852 0.7528,0.9979 0.9372,1.8384 0.2048,0.957 0.6555,1.6924 1.3519,2.206 0.6965,0.5136 1.4647,0.712 2.3045,0.5953 0.3892,-0.0467 0.7631,-0.1692 1.1215,-0.3677 0.3585,-0.1984 0.6504,-0.4377 0.8757,-0.7178 0.2253,-0.2802 0.3636,-0.5836 0.4149,-0.9104 0.0511,-0.3269 -0.0359,-0.6537 -0.2612,-0.9805zm13.1631 -0.4772c0,0.7937 0,1.4532 0,1.9784 0,0.5252 0.0257,0.9396 0.0769,1.2431 0.0512,0.3034 0.1433,0.5195 0.2765,0.6479 0.1332,0.1284 0.3226,0.1925 0.5685,0.1925 0.2868,0 0.5992,-0.0641 0.9372,-0.1925 0.3379,-0.1284 0.6503,-0.3445 0.9371,-0.6479 0.2868,-0.3035 0.5224,-0.7179 0.7067,-1.2431 0.1843,-0.5252 0.2663,-1.1847 0.2458,-1.9784 -0.0205,-0.8171 -0.128,-1.494 -0.3226,-2.0309 -0.1947,-0.537 -0.4302,-0.9631 -0.7067,-1.2782 -0.2766,-0.3151 -0.5736,-0.5368 -0.8911,-0.6652 -0.3175,-0.1284 -0.6196,-0.1926 -0.9064,-0.1926 -0.2459,0 -0.4353,0.0642 -0.5685,0.1926 -0.1332,0.1284 -0.2253,0.3559 -0.2765,0.6828 -0.0512,0.3267 -0.0769,0.7528 -0.0769,1.278 0,0.5253 0,1.1964 0,2.0135z"/>
   </g>
  </g>
  <rect class="fil1" x="2.1589" y="0.633199" width="296.536" height="47.322"/>
 </g>
</svg>
